<?xml version="1.0" encoding="utf-8"?>
<!-- Generator: Adobe Illustrator 28.2.0, SVG Export Plug-In . SVG Version: 6.00 Build 0)  -->
<svg version="1.1" id="Layer_1" xmlns="http://www.w3.org/2000/svg" xmlns:xlink="http://www.w3.org/1999/xlink" x="0px" y="0px"
	 viewBox="0 0 64 64" style="enable-background:new 0 0 64 64;" xml:space="preserve">
<style type="text/css">
	.st0{fill:#FFFFFF;}
</style>
<path class="st0" d="M53.3,0H10.7C4.8,0,0,4.8,0,10.7v42.7C0,59.2,4.8,64,10.7,64h22.7V41.3h-8V32h8v-6.7c0-9.3,5.3-14.7,13.3-14.7
	c4.2,0,6.7,1.3,6.7,1.3v8H48c-3.8,0-5.3,2.8-5.3,5.3V32H52l-1.3,9.3h-8V64h10.7C59.2,64,64,59.2,64,53.3V10.7C64,4.8,59.2,0,53.3,0z
	"/>
</svg>
