<?xml version="1.0" encoding="utf-8"?>
<!-- Generator: Adobe Illustrator 28.2.0, SVG Export Plug-In . SVG Version: 6.00 Build 0)  -->
<svg version="1.1" id="Layer_1" xmlns="http://www.w3.org/2000/svg" xmlns:xlink="http://www.w3.org/1999/xlink" x="0px" y="0px"
	 viewBox="0 0 64 64" style="enable-background:new 0 0 64 64;" xml:space="preserve">
<style type="text/css">
	.st0{fill:#FFFFFF;}
</style>
<path class="st0" d="M53.3,0H10.7C4.8,0,0,4.8,0,10.7v42.7C0,59.2,4.8,64,10.7,64h42.7C59.2,64,64,59.2,64,53.3V10.7
	C64,4.8,59.2,0,53.3,0z M21.3,52h-6.7V25.3h6.7V52z M21.4,20c-0.9,0.9-2,1.3-3.4,1.3c-1.4,0-2.5-0.5-3.4-1.4c-0.9-0.9-1.3-2-1.3-3.3
	c0-1.4,0.4-2.5,1.3-3.3c0.9-0.9,2-1.3,3.4-1.3c1.4,0,2.5,0.4,3.4,1.3s1.3,2,1.3,3.3C22.7,18,22.2,19.1,21.4,20z M52,52h-6.7V37.2
	c0-4.1-2.4-6.5-5.3-6.5c-1.4,0-3,0.9-4,2c-0.9,1.1-1.4,2.5-1.4,4.2V52H28V25.3h6.7v4.2h0.1c2-3.2,4.8-4.9,8.6-4.9
	c5.3,0,8.7,4,8.7,11V52z"/>
</svg>
