<svg fill="#046cb8" height="800" width="800" xmlns="http://www.w3.org/2000/svg" viewBox="0 0 198.04 198.04" xml:space="preserve">
  <path d="M180.727 18.401a5 5 0 0 0-4.038-4.171L99.926.083c-.6-.11-1.213-.11-1.813 0L21.35 14.23a5 5 0 0 0-4.038 4.171c-.328 2.169-7.841 53.635 7.258 98.157 15.28 45.056 69.501 79.289 71.802 80.724a5 5 0 0 0 5.292 0c2.301-1.435 56.522-35.668 71.804-80.724 15.101-44.522 7.587-95.988 7.259-98.157zM99.02 97.433H35.215c-7.508-33.414-2.279-67.413-2.279-67.413L99.02 18.08v79.353zm60.015 13.448c-12.812 37.037-60.015 65.906-60.015 65.906V97.433h63.805c-1.016 4.522-2.263 9.033-3.79 13.448z"/>
</svg>